<?xml version="1.0" encoding="utf-8"?>
<!-- Generator: Adobe Illustrator 22.1.0, SVG Export Plug-In . SVG Version: 6.00 Build 0)  -->
<svg version="1.2" baseProfile="tiny" id="Layer_1" xmlns="http://www.w3.org/2000/svg" xmlns:xlink="http://www.w3.org/1999/xlink"
	 x="0px" y="0px" viewBox="0 0 8880 7216" xml:space="preserve">
<linearGradient id="SVGID_1_" gradientUnits="userSpaceOnUse" x1="4407.7944" y1="7877.585" x2="907.5656" y2="1815.0105">
	<stop  offset="0" style="stop-color:#474747"/>
	<stop  offset="0.6451" style="stop-color:#262222"/>
	<stop  offset="1" style="stop-color:#191313"/>
</linearGradient>
<path fill="url(#SVGID_1_)" d="M4933.1,5260c-603,4.5-2262.9,9-2734,10.2V2296.6H73.5v4745.8h1993.8h131.8h2565.5
	c0,0,979.8,19.3,1585.6-286.2V4569.9C6350.2,4569.9,5639,5254.8,4933.1,5260z"/>
<linearGradient id="SVGID_2_" gradientUnits="userSpaceOnUse" x1="8738.332" y1="1944.4966" x2="7448.1899" y2="-290.0948">
	<stop  offset="0" style="stop-color:#474747"/>
	<stop  offset="0.6451" style="stop-color:#262222"/>
	<stop  offset="1" style="stop-color:#191313"/>
</linearGradient>
<path fill="url(#SVGID_2_)" d="M8734.8,155.3v1791.3c0,0-460.1-1252.2-2058-1789.5v-1.8H8734.8z"/>
<linearGradient id="SVGID_3_" gradientUnits="userSpaceOnUse" x1="6599.7139" y1="436.5147" x2="3762.9197" y2="5349.9863">
	<stop  offset="0" style="stop-color:#1DD8C1"/>
	<stop  offset="0.4075" style="stop-color:#14A893"/>
	<stop  offset="0.7974" style="stop-color:#0C816D"/>
	<stop  offset="1" style="stop-color:#09725E"/>
</linearGradient>
<path fill="url(#SVGID_3_)" d="M5158,155.3L5158,155.3H831.1L91.6,1967.5h1965.2h2664.3h427.6
	C6019.7,2073,6694.5,2814.7,6694.5,3714v3210.7v117.7h2022.2V3714v0C8716.7,1748.6,7123.4,155.3,5158,155.3z"/>
<linearGradient id="SVGID_4_" gradientUnits="userSpaceOnUse" x1="5198.0396" y1="2740.4138" x2="4314.1045" y2="4271.4341">
	<stop  offset="0" style="stop-color:#1DD8C1"/>
	<stop  offset="0.4075" style="stop-color:#14A893"/>
	<stop  offset="0.7974" style="stop-color:#0C816D"/>
	<stop  offset="1" style="stop-color:#09725E"/>
</linearGradient>
<polygon fill="url(#SVGID_4_)" points="5073.5,3407.4 5152.8,2714.3 4679.4,3227.1 4047.7,2931 4383.2,3542.7 3908.4,4037.2 
	4598.6,3918.9 4937.4,4516.8 5017.1,3839.4 5683,3702.3 "/>
<linearGradient id="SVGID_5_" gradientUnits="userSpaceOnUse" x1="4655.7935" y1="2557.4988" x2="3500.2705" y2="4558.9229">
	<stop  offset="0" style="stop-color:#1DD8C1"/>
	<stop  offset="0.4075" style="stop-color:#14A893"/>
	<stop  offset="0.7974" style="stop-color:#0C816D"/>
	<stop  offset="1" style="stop-color:#09725E"/>
</linearGradient>
<path fill="url(#SVGID_5_)" d="M3568.5,3598.9c0-561.7,455.3-1017,1017-1017c42.9,0,85.1,3,126.6,8.1
	c-166.7-93.2-358.7-146.6-563.2-146.6c-638.2,0-1155.5,517.3-1155.5,1155.5c0,638.2,517.3,1155.5,1155.5,1155.5
	c204.6,0,396.5-53.4,563.2-146.6c-41.5,5.2-83.7,8.1-126.6,8.1C4023.8,4616,3568.5,4160.6,3568.5,3598.9z"/>
</svg>
